{"asset":{"version":"2.0","generator":"babylon.js glTF exporter for 3dsmax 2018 v20191220.1"},"scene":0,"scenes":[{"nodes":[0,1,2,3,4,5,6,7,8,9,10,11,12,13,14,15,16,17,18,19,20,21,22,23,24],"extensions":{}}],"nodes":[{"translation":[0.0,0.0,4.1186463E-06],"rotation":[0.7071068,0.0,0.0,0.7071067],"scale":[1.0,1.0,1.0],"name":"Bottom.Target"},{"translation":[0.0,60.56736,1.21681433E-06],"rotation":[0.0,0.0,0.0,1.0],"scale":[1.0,1.0,1.0],"name":"Key 01.Target"},{"translation":[-1.32275784,60.56736,-3.40383244],"rotation":[0.0,0.0,0.0,1.0],"scale":[1.0,1.0,1.0],"name":"Fill 01.Target"},{"translation":[0.0,0.5673599,1.21681433E-06],"rotation":[0.0,0.0,0.0,1.0],"scale":[1.0,1.0,1.0],"name":"Fill 02.Target"},{"translation":[0.0,-59.43264,-2.597883E-06],"rotation":[0.0,0.0,0.0,1.0],"scale":[1.0,1.0,1.0],"name":"Fill 03.Target"},{"translation":[0.0,0.5673599,1.21681433E-06],"rotation":[0.0,0.0,0.0,1.0],"scale":[1.0,1.0,1.0],"name":"Key 02.Target"},{"translation":[0.0,-59.43264,-2.597883E-06],"rotation":[0.0,0.0,0.0,1.0],"scale":[1.0,1.0,1.0],"name":"Key 03.Target"},{"translation":[0.0,-119.43264,-6.41258E-06],"rotation":[0.0,0.0,0.0,1.0],"scale":[1.0,1.0,1.0],"name":"Key 04.Target"},{"translation":[0.0,-179.432648,-6.41258E-06],"rotation":[0.0,0.0,0.0,1.0],"scale":[1.0,1.0,1.0],"name":"Key 05.Target"},{"translation":[0.0,-119.43264,-6.41258E-06],"rotation":[0.0,0.0,0.0,1.0],"scale":[1.0,1.0,1.0],"name":"Fill 04.Target"},{"translation":[0.0,-179.432648,-6.41258E-06],"rotation":[0.0,0.0,0.0,1.0],"scale":[1.0,1.0,1.0],"name":"Fill 05.Target"},{"translation":[0.0,179.833344,9.291434E-06],"rotation":[0.0,0.0,0.0,1.0],"scale":[1.0,1.0,1.0],"name":"Fill 11.Target"},{"translation":[0.0,119.833344,6.6687503E-06],"rotation":[0.0,0.0,0.0,1.0],"scale":[1.0,1.0,1.0],"name":"Fill 12.Target"},{"translation":[0.0,179.833344,9.291434E-06],"rotation":[0.0,0.0,0.0,1.0],"scale":[1.0,1.0,1.0],"name":"Key 11.Target"},{"translation":[0.0,119.833344,6.6687503E-06],"rotation":[0.0,0.0,0.0,1.0],"scale":[1.0,1.0,1.0],"name":"Key 12.Target"},{"translation":[0.0,0.0,4.1186463E-06],"rotation":[0.7071068,0.0,0.0,0.7071067],"scale":[1.0,1.0,1.0],"name":"Top.Target"},{"translation":[0.0,60.56736,1.21681433E-06],"rotation":[0.0,0.0,0.0,1.0],"scale":[1.0,1.0,1.0],"name":"Back.Target"},{"translation":[0.0,0.5673599,1.21681433E-06],"rotation":[0.0,0.0,0.0,1.0],"scale":[1.0,1.0,1.0],"name":"Key 16.Target"},{"translation":[0.0,-59.43264,-2.597883E-06],"rotation":[0.0,0.0,0.0,1.0],"scale":[1.0,1.0,1.0],"name":"Key 17.Target"},{"translation":[0.0,-119.43264,-6.41258E-06],"rotation":[0.0,0.0,0.0,1.0],"scale":[1.0,1.0,1.0],"name":"Key 18.Target"},{"translation":[0.0,-179.432648,-6.41258E-06],"rotation":[0.0,0.0,0.0,1.0],"scale":[1.0,1.0,1.0],"name":"Key 19.Target"},{"translation":[0.0,179.833344,9.291434E-06],"rotation":[0.0,0.0,0.0,1.0],"scale":[1.0,1.0,1.0],"name":"Key 22.Target"},{"translation":[0.0,119.833344,6.6687503E-06],"rotation":[0.0,0.0,0.0,1.0],"scale":[1.0,1.0,1.0],"name":"Key 23.Target"},{"mesh":0,"translation":[0.112510391,-0.187492371,-0.6749301],"rotation":[0.0,0.0,0.0,1.0],"scale":[1.0,1.0,1.0],"name":"simple"},{"translation":[0.0,0.0,0.0],"rotation":[0.0,0.0,0.0,1.0],"scale":[1.0,1.0,1.0],"name":"Default light"}],"meshes":[{"primitives":[{"attributes":{"POSITION":1,"NORMAL":2,"TEXCOORD_0":3},"indices":0,"mode":4,"material":0},{"attributes":{"POSITION":5,"NORMAL":6,"TEXCOORD_0":7},"indices":4,"mode":4,"material":1}],"name":"simple"}],"accessors":[{"bufferView":0,"componentType":5123,"count":144,"type":"SCALAR","name":"accessorIndices"},{"bufferView":1,"componentType":5126,"count":144,"max":[32.4365425,79.20471,32.4365425],"min":[-32.4365425,-79.20471,-32.4365425],"type":"VEC3","name":"accessorPositions"},{"bufferView":1,"byteOffset":1728,"componentType":5126,"count":144,"type":"VEC3","name":"accessorNormals"},{"bufferView":2,"componentType":5126,"count":144,"type":"VEC2","name":"accessorUVs"},{"bufferView":0,"byteOffset":288,"componentType":5123,"count":432,"type":"SCALAR","name":"accessorIndices"},{"bufferView":1,"byteOffset":3456,"componentType":5126,"count":432,"max":[32.4365425,83.92912,32.4365425],"min":[-32.4365425,-83.92912,-32.4365425],"type":"VEC3","name":"accessorPositions"},{"bufferView":1,"byteOffset":8640,"componentType":5126,"count":432,"type":"VEC3","name":"accessorNormals"},{"bufferView":2,"byteOffset":1152,"componentType":5126,"count":432,"type":"VEC2","name":"accessorUVs"}],"bufferViews":[{"buffer":0,"byteLength":1152,"name":"bufferViewScalar"},{"buffer":0,"byteOffset":1152,"byteLength":13824,"byteStride":12,"name":"bufferViewFloatVec3"},{"buffer":0,"byteOffset":14976,"byteLength":4608,"byteStride":8,"name":"bufferViewFloatVec2"}],"buffers":[{"uri":"can-cyl-GLTF.bin","byteLength":19584}],"materials":[{"pbrMetallicRoughness":{"baseColorFactor":[1.0,1.0,1.0,1.0],"baseColorTexture":{"index":0,"texCoord":0},"metallicFactor":0.0,"roughnessFactor":0.450053632},"emissiveFactor":[0.0,0.0,0.0],"alphaMode":"OPAQUE","name":"Material #99"},{"pbrMetallicRoughness":{"baseColorFactor":[1.0,1.0,1.0,1.0],"baseColorTexture":{"index":1,"texCoord":1},"metallicFactor":0.0,"roughnessFactor":0.450053632},"emissiveFactor":[0.0,0.0,0.0],"alphaMode":"OPAQUE","name":"Material #111"}],"textures":[{"sampler":0,"source":0,"name":"Material #99_baseColor.png"},{"sampler":0,"source":1,"name":"Material #111_baseColor.png"}],"images":[{"uri":"./Material #99_baseColor.png"},{"uri":"./Material #111_baseColor.png"}],"samplers":[{"magFilter":9729,"minFilter":9987,"wrapS":10497,"wrapT":10497}]}